<?xml version="1.0" standalone="no"?>
<!DOCTYPE svg PUBLIC "-//W3C//DTD SVG 20010904//EN"
 "http://www.w3.org/TR/2001/REC-SVG-20010904/DTD/svg10.dtd">
<svg version="1.0" xmlns="http://www.w3.org/2000/svg"
 width="128.000000pt" height="128.000000pt" viewBox="0 0 128.000000 128.000000"
 preserveAspectRatio="xMidYMid meet">

<g transform="translate(0.000000,128.000000) scale(0.100000,-0.100000)"
fill="#000000" stroke="none">
<path d="M539 1270 c-128 -20 -257 -88 -353 -185 -71 -72 -117 -149 -152 -250
-23 -69 -27 -96 -27 -195 0 -99 4 -126 27 -195 69 -200 212 -344 406 -408 41
-14 99 -28 128 -31 l52 -7 -2 253 -3 253 -67 3 -68 3 0 84 0 85 70 0 70 0 0
53 c0 72 25 164 58 211 15 22 47 50 72 64 39 20 55 23 121 20 41 -3 81 -8 87
-12 8 -4 12 -35 12 -82 l0 -74 -52 0 c-101 0 -118 -18 -118 -120 l0 -60 75 0
c86 0 81 8 69 -109 l-7 -61 -68 0 -69 0 0 -245 0 -245 68 25 c178 67 312 209
378 400 24 69 28 96 28 195 0 99 -4 126 -28 195 -53 153 -151 276 -285 354
-119 71 -285 102 -422 81z"/>
</g>
</svg>
