<?xml version="1.0" standalone="no"?>
<!DOCTYPE svg PUBLIC "-//W3C//DTD SVG 20010904//EN"
 "http://www.w3.org/TR/2001/REC-SVG-20010904/DTD/svg10.dtd">
<svg version="1.0" xmlns="http://www.w3.org/2000/svg"
 width="128.000000pt" height="128.000000pt" viewBox="0 0 128.000000 128.000000"
 preserveAspectRatio="xMidYMid meet">

<g transform="translate(0.000000,128.000000) scale(0.100000,-0.100000)"
fill="#000000" stroke="none">
<path d="M507 1264 c-178 -39 -345 -162 -419 -307 l-20 -40 66 -66 c66 -66 66
-66 66 -35 0 65 31 137 79 185 68 68 95 74 361 74 258 0 290 -6 355 -66 73
-68 80 -98 80 -364 0 -271 -5 -298 -74 -366 -48 -48 -120 -79 -185 -79 -31 0
-31 0 36 -67 l67 -66 54 33 c132 80 225 197 273 343 24 70 28 99 28 197 0 98
-5 127 -27 196 -47 141 -131 252 -254 334 -138 92 -330 130 -486 94z"/>
<path d="M431 990 c-105 -16 -141 -68 -141 -205 l0 -91 66 -64 65 -65 -6 37
c-11 56 11 130 52 177 109 128 298 106 375 -43 27 -53 27 -139 -1 -193 -44
-87 -151 -144 -239 -128 l-37 6 65 -66 65 -66 100 3 c87 3 105 6 134 27 53 38
63 75 68 261 6 189 -6 311 -34 349 -41 55 -80 65 -288 67 -104 2 -214 -1 -244
-6z m479 -80 c24 -24 25 -38 4 -68 -18 -26 -50 -28 -76 -5 -25 22 -23 59 4 77
30 21 44 20 68 -4z"/>
<path d="M563 760 c-87 -53 -82 -193 8 -242 98 -52 209 11 209 120 0 85 -56
142 -140 142 -27 0 -58 -8 -77 -20z"/>
</g>
</svg>
